# xmcd CD database file
#
# Track frame offsets:
#	150
#	41122
#	51313
#	99554
#	122536
#	162904
#	210615
#	224059
#
# Disc length: 3102 seconds
#
# Revision: 0
# Processed by: cddbd v1.5.2PL0 Copyright (c) Steve Scherf et al.
# Submitted via: CDex 1.70beta2
#
DISCID=770c1c08
DTITLE=Robert Haig Coxon - The Infinite - Essence of Life
DYEAR=2009
DGENRE=New Age
TTITLE0=Essence of Kryon
TTITLE1=The Beginnings
TTITLE2=Divine Secrets
TTITLE3=Reverence
TTITLE4=The Bridge
TTITLE5=The Family
TTITLE6=Serenity
TTITLE7=Life
EXTD=YEAR: 2009
EXTT0=
EXTT1=
EXTT2=
EXTT3=
EXTT4=
EXTT5=
EXTT6=
EXTT7=
PLAYORDER=
